<?xml version="1.0" encoding="us-ascii" standalone="no"?><svg xmlns="http://www.w3.org/2000/svg" xmlns:xlink="http://www.w3.org/1999/xlink" contentStyleType="text/css" height="1158px" preserveAspectRatio="none" style="width:1098px;height:1158px;background:#FFFFFF;" version="1.1" viewBox="0 0 1098 1158" width="1098px" zoomAndPan="magnify"><defs/><g><!--cluster MacOS Host--><g id="cluster_MacOS Host"><rect fill="none" height="968.8" rx="2.5" ry="2.5" style="stroke:#181818;stroke-width:1.0;" width="765" x="90" y="7"/><text fill="#000000" font-family="sans-serif" font-size="14" font-weight="bold" lengthAdjust="spacing" textLength="87" x="429" y="22.5352">MacOS Host</text></g><!--cluster Multipass VM--><g id="cluster_Multipass VM"><rect fill="none" height="901.8" rx="2.5" ry="2.5" style="stroke:#181818;stroke-width:1.0;" width="717" x="114" y="50"/><text fill="#000000" font-family="sans-serif" font-size="14" font-weight="bold" lengthAdjust="spacing" textLength="99" x="423" y="65.5352">Multipass VM</text></g><!--cluster MicroK8s Cluster--><g id="cluster_MicroK8s Cluster"><rect fill="none" height="834.8" rx="2.5" ry="2.5" style="stroke:#181818;stroke-width:1.0;" width="669" x="138" y="93"/><text fill="#000000" font-family="sans-serif" font-size="14" font-weight="bold" lengthAdjust="spacing" textLength="124" x="410.5" y="108.5352">MicroK8s Cluster</text></g><!--cluster Worker Node--><g id="cluster_Worker Node"><polygon fill="none" points="162,414.36,172,404.36,622,404.36,622,704.34,612,714.34,162,714.34,162,414.36" style="stroke:#181818;stroke-width:1.0;"/><line style="stroke:#181818;stroke-width:1.0;" x1="612" x2="622" y1="414.36" y2="404.36"/><line style="stroke:#181818;stroke-width:1.0;" x1="162" x2="612" y1="414.36" y2="414.36"/><line style="stroke:#181818;stroke-width:1.0;" x1="612" x2="612" y1="414.36" y2="714.34"/><text fill="#000000" font-family="sans-serif" font-size="14" font-weight="bold" lengthAdjust="spacing" textLength="93" x="341.5" y="430.8952">Worker Node</text></g><!--cluster nginx--><g id="cluster_nginx"><rect fill="none" height="221.98" rx="2.5" ry="2.5" style="stroke:#181818;stroke-width:1.0;" width="210" x="194" y="460.36"/><text fill="#000000" font-family="sans-serif" font-size="14" font-weight="bold" lengthAdjust="spacing" textLength="75" x="261.5" y="475.8952">Pod: nginx</text></g><!--cluster k6--><g id="cluster_k6"><rect fill="none" height="97.49" rx="2.5" ry="2.5" style="stroke:#181818;stroke-width:1.0;" width="162" x="436" y="468.36"/><text fill="#000000" font-family="sans-serif" font-size="14" font-weight="bold" lengthAdjust="spacing" textLength="121" x="456.5" y="483.8952">Pod: k6-loadtest</text></g><!--cluster Control Plane--><g id="cluster_Control Plane"><polygon fill="none" points="507,146,517,136,772,136,772,330.36,762,340.36,507,340.36,507,146" style="stroke:#181818;stroke-width:1.0;"/><line style="stroke:#181818;stroke-width:1.0;" x1="762" x2="772" y1="146" y2="136"/><line style="stroke:#181818;stroke-width:1.0;" x1="507" x2="762" y1="146" y2="146"/><line style="stroke:#181818;stroke-width:1.0;" x1="762" x2="762" y1="146" y2="340.36"/><text fill="#000000" font-family="sans-serif" font-size="14" font-weight="bold" lengthAdjust="spacing" textLength="98" x="586.5" y="162.5352">Control Plane</text></g><!--entity coredns--><g id="elem_coredns"><rect fill="#FFD700" height="62.9766" rx="2.5" ry="2.5" style="stroke:#181818;stroke-width:0.5;" width="101" x="154.5" y="269.63"/><rect fill="#FFD700" height="10" style="stroke:#181818;stroke-width:0.5;" width="15" x="235.5" y="274.63"/><rect fill="#FFD700" height="2" style="stroke:#181818;stroke-width:0.5;" width="4" x="233.5" y="276.63"/><rect fill="#FFD700" height="2" style="stroke:#181818;stroke-width:0.5;" width="4" x="233.5" y="280.63"/><text fill="#000000" font-family="sans-serif" font-size="14" font-style="italic" lengthAdjust="spacing" textLength="42" x="179" y="303.1652">&#171;DNS&#187;</text><text fill="#000000" font-family="sans-serif" font-size="14" lengthAdjust="spacing" textLength="61" x="169.5" y="319.6534">CoreDNS</text></g><!--entity ingress--><g id="elem_ingress"><rect fill="#00BFFF" height="62.9766" rx="2.5" ry="2.5" style="stroke:#181818;stroke-width:0.5;" width="141" x="350.5" y="269.63"/><rect fill="#00BFFF" height="10" style="stroke:#181818;stroke-width:0.5;" width="15" x="471.5" y="274.63"/><rect fill="#00BFFF" height="2" style="stroke:#181818;stroke-width:0.5;" width="4" x="469.5" y="276.63"/><rect fill="#00BFFF" height="2" style="stroke:#181818;stroke-width:0.5;" width="4" x="469.5" y="280.63"/><text fill="#000000" font-family="sans-serif" font-size="14" font-style="italic" lengthAdjust="spacing" textLength="64" x="384" y="303.1652">&#171;Ingress&#187;</text><text fill="#000000" font-family="sans-serif" font-size="14" lengthAdjust="spacing" textLength="101" x="365.5" y="319.6534">Ingress-NGINX</text></g><!--entity grafana--><g id="elem_grafana"><path d="M329,867.57 C329,857.57 366,857.57 366,857.57 C366,857.57 403,857.57 403,867.57 L403,893.0583 C403,903.0583 366,903.0583 366,903.0583 C366,903.0583 329,903.0583 329,893.0583 L329,867.57 " fill="#32CD32" style="stroke:#181818;stroke-width:0.5;"/><path d="M329,867.57 C329,877.57 366,877.57 366,877.57 C366,877.57 403,877.57 403,867.57 " fill="none" style="stroke:#181818;stroke-width:0.5;"/><text fill="#000000" font-family="sans-serif" font-size="14" lengthAdjust="spacing" textLength="54" x="339" y="895.1052">Grafana</text></g><!--entity rl_agent--><g id="elem_rl_agent"><rect fill="#FF69B4" height="62.9766" rx="2.5" ry="2.5" style="stroke:#181818;stroke-width:0.5;" width="119" x="592.5" y="848.82"/><rect fill="#FF69B4" height="10" style="stroke:#181818;stroke-width:0.5;" width="15" x="691.5" y="853.82"/><rect fill="#FF69B4" height="2" style="stroke:#181818;stroke-width:0.5;" width="4" x="689.5" y="855.82"/><rect fill="#FF69B4" height="2" style="stroke:#181818;stroke-width:0.5;" width="4" x="689.5" y="859.82"/><text fill="#000000" font-family="sans-serif" font-size="14" font-style="italic" lengthAdjust="spacing" textLength="79" x="607.5" y="882.3552">&#171;PPO/DQN&#187;</text><text fill="#000000" font-family="sans-serif" font-size="14" lengthAdjust="spacing" textLength="61" x="616.5" y="898.8434">RL Agent</text></g><!--entity prometheus--><g id="elem_prometheus"><path d="M548,770.34 C548,760.34 599,760.34 599,760.34 C599,760.34 650,760.34 650,770.34 L650,795.8283 C650,805.8283 599,805.8283 599,805.8283 C599,805.8283 548,805.8283 548,795.8283 L548,770.34 " fill="#FFA07A" style="stroke:#181818;stroke-width:0.5;"/><path d="M548,770.34 C548,780.34 599,780.34 599,780.34 C599,780.34 650,780.34 650,770.34 " fill="none" style="stroke:#181818;stroke-width:0.5;"/><text fill="#000000" font-family="sans-serif" font-size="14" lengthAdjust="spacing" textLength="82" x="558" y="797.8752">Prometheus</text></g><!--entity metrics_server--><g id="elem_metrics_server"><rect fill="#FFA07A" height="46.4883" rx="2.5" ry="2.5" style="stroke:#181818;stroke-width:0.5;" width="136" x="638" y="611.85"/><rect fill="#FFA07A" height="10" style="stroke:#181818;stroke-width:0.5;" width="15" x="754" y="616.85"/><rect fill="#FFA07A" height="2" style="stroke:#181818;stroke-width:0.5;" width="4" x="752" y="618.85"/><rect fill="#FFA07A" height="2" style="stroke:#181818;stroke-width:0.5;" width="4" x="752" y="622.85"/><text fill="#000000" font-family="sans-serif" font-size="14" lengthAdjust="spacing" textLength="96" x="653" y="645.3852">Metrics Server</text></g><!--entity nginx_ctr--><g id="elem_nginx_ctr"><rect fill="#F1F1F1" height="46.4883" rx="2.5" ry="2.5" style="stroke:#181818;stroke-width:0.5;" width="153" x="218.5" y="503.36"/><rect fill="#F1F1F1" height="10" style="stroke:#181818;stroke-width:0.5;" width="15" x="351.5" y="508.36"/><rect fill="#F1F1F1" height="2" style="stroke:#181818;stroke-width:0.5;" width="4" x="349.5" y="510.36"/><rect fill="#F1F1F1" height="2" style="stroke:#181818;stroke-width:0.5;" width="4" x="349.5" y="514.36"/><text fill="#000000" font-family="sans-serif" font-size="14" lengthAdjust="spacing" textLength="113" x="233.5" y="536.8952">nginx-container</text></g><!--entity metrics--><g id="elem_metrics"><rect fill="#F1F1F1" height="46.4883" rx="2.5" ry="2.5" style="stroke:#181818;stroke-width:0.5;" width="147" x="224.5" y="611.85"/><rect fill="#F1F1F1" height="10" style="stroke:#181818;stroke-width:0.5;" width="15" x="351.5" y="616.85"/><rect fill="#F1F1F1" height="2" style="stroke:#181818;stroke-width:0.5;" width="4" x="349.5" y="618.85"/><rect fill="#F1F1F1" height="2" style="stroke:#181818;stroke-width:0.5;" width="4" x="349.5" y="622.85"/><text fill="#000000" font-family="sans-serif" font-size="14" lengthAdjust="spacing" textLength="107" x="239.5" y="645.3852">metrics-sidecar</text></g><!--entity k6_ctr--><g id="elem_k6_ctr"><rect fill="#F1F1F1" height="46.4883" rx="2.5" ry="2.5" style="stroke:#181818;stroke-width:0.5;" width="130" x="452" y="503.36"/><rect fill="#F1F1F1" height="10" style="stroke:#181818;stroke-width:0.5;" width="15" x="562" y="508.36"/><rect fill="#F1F1F1" height="2" style="stroke:#181818;stroke-width:0.5;" width="4" x="560" y="510.36"/><rect fill="#F1F1F1" height="2" style="stroke:#181818;stroke-width:0.5;" width="4" x="560" y="514.36"/><text fill="#000000" font-family="sans-serif" font-size="14" lengthAdjust="spacing" textLength="90" x="467" y="536.8952">k6-container</text></g><!--entity api--><g id="elem_api"><rect fill="#F1F1F1" height="46.4883" rx="2.5" ry="2.5" style="stroke:#181818;stroke-width:0.5;" width="109" x="523.5" y="176"/><rect fill="#F1F1F1" height="10" style="stroke:#181818;stroke-width:0.5;" width="15" x="612.5" y="181"/><rect fill="#F1F1F1" height="2" style="stroke:#181818;stroke-width:0.5;" width="4" x="610.5" y="183"/><rect fill="#F1F1F1" height="2" style="stroke:#181818;stroke-width:0.5;" width="4" x="610.5" y="187"/><text fill="#000000" font-family="sans-serif" font-size="14" lengthAdjust="spacing" textLength="69" x="538.5" y="209.5352">API Server</text></g><!--entity scheduler--><g id="elem_scheduler"><rect fill="#F1F1F1" height="46.4883" rx="2.5" ry="2.5" style="stroke:#181818;stroke-width:0.5;" width="108" x="648" y="176"/><rect fill="#F1F1F1" height="10" style="stroke:#181818;stroke-width:0.5;" width="15" x="736" y="181"/><rect fill="#F1F1F1" height="2" style="stroke:#181818;stroke-width:0.5;" width="4" x="734" y="183"/><rect fill="#F1F1F1" height="2" style="stroke:#181818;stroke-width:0.5;" width="4" x="734" y="187"/><text fill="#000000" font-family="sans-serif" font-size="14" lengthAdjust="spacing" textLength="68" x="663" y="209.5352">Scheduler</text></g><!--entity ctrl--><g id="elem_ctrl"><rect fill="#F1F1F1" height="46.4883" rx="2.5" ry="2.5" style="stroke:#181818;stroke-width:0.5;" width="174" x="523" y="277.87"/><rect fill="#F1F1F1" height="10" style="stroke:#181818;stroke-width:0.5;" width="15" x="677" y="282.87"/><rect fill="#F1F1F1" height="2" style="stroke:#181818;stroke-width:0.5;" width="4" x="675" y="284.87"/><rect fill="#F1F1F1" height="2" style="stroke:#181818;stroke-width:0.5;" width="4" x="675" y="288.87"/><text fill="#000000" font-family="sans-serif" font-size="14" lengthAdjust="spacing" textLength="134" x="538" y="311.4052">Controller Manager</text></g><!--entity user--><g id="elem_user"><path d="M23.1198,185.5689 C25.2827,179.8668 30.2985,178.6066 34.2098,183.7872 C36.6266,178.8214 40.745,177.7927 44.6898,182.0514 C48.8008,177.2177 53.7456,179.508 55.5681,184.5677 C58.8861,178.4177 62.8565,179.6449 66.6834,184.0309 C75.8457,187.1161 78.3178,193.2225 70.8948,200.5388 C77.3331,206.7146 76.484,211.4682 68.4377,215.2198 C67.6703,222.7569 62.893,225.0484 56.6011,220.7403 C54.4778,227.3042 50.3489,229.505 44.1609,225.5453 C38.2792,229.6559 35.0428,227.6339 33.5135,221.165 C27.7979,223.515 23.3836,222.678 23.2991,215.2704 C14.7581,212.2718 13.109,204.7904 20.9352,199.36 C15.1769,193.9324 16.7993,189.0831 23.1198,185.5689 " fill="#F1F1F1" style="stroke:#181818;stroke-width:0.5;"/><text fill="#000000" font-family="sans-serif" font-size="14" lengthAdjust="spacing" textLength="31" x="28.5" y="204.5352">User</text></g><g id="elem_GMN36"><path d="M870.5,265.49 L870.5,336.7322 L1091.5,336.7322 L1091.5,275.49 L1081.5,265.49 L870.5,265.49 " fill="#FEFFDD" style="stroke:#181818;stroke-width:0.5;"/><path d="M1081.5,265.49 L1081.5,275.49 L1091.5,275.49 L1081.5,265.49 " fill="#FEFFDD" style="stroke:#181818;stroke-width:1.0;"/><text fill="#000000" font-family="sans-serif" font-size="13" font-weight="bold" lengthAdjust="spacing" textLength="180" x="876.5" y="283.0584">Enabled MicroK8s Addons:</text><text fill="#000000" font-family="sans-serif" font-size="13" lengthAdjust="spacing" textLength="142" x="876.5" y="298.3689">&#8226; microk8s enable dns</text><text fill="#000000" font-family="sans-serif" font-size="13" lengthAdjust="spacing" textLength="165" x="876.5" y="313.6795">&#8226; microk8s enable ingress</text><text fill="#000000" font-family="sans-serif" font-size="13" lengthAdjust="spacing" textLength="200" x="876.5" y="328.99">&#8226; microk8s enable observability</text></g><!--link coredns to ingress--><g id="link_coredns_ingress"><path d="M255.92,301.11 C284.1,301.11 313.57,301.11 344.4,301.11 " fill="none" id="coredns-to-ingress" style="stroke:#181818;stroke-width:1.0;"/><polygon fill="#181818" points="350.4,301.11,341.4,297.11,345.4,301.11,341.4,305.11,350.4,301.11" style="stroke:#181818;stroke-width:1.0;"/><text fill="#000000" font-family="sans-serif" font-size="13" lengthAdjust="spacing" textLength="64" x="271" y="279.6784">1. Resolve</text><text fill="#000000" font-family="sans-serif" font-size="13" lengthAdjust="spacing" textLength="79" x="263.5" y="294.9889">DNS Queries</text></g><!--link ingress to nginx_ctr--><g id="link_ingress_nginx_ctr"><path d="M403.74,332.72 C378.07,378.27 333.3372,457.6137 310.6172,497.9037 " fill="none" id="ingress-to-nginx_ctr" style="stroke:#181818;stroke-width:1.0;"/><polygon fill="#181818" points="307.67,503.13,315.575,497.2553,310.126,498.7748,308.6066,493.3258,307.67,503.13" style="stroke:#181818;stroke-width:1.0;"/><text fill="#000000" font-family="sans-serif" font-size="13" lengthAdjust="spacing" textLength="97" x="396.71" y="369.9284">2. Route Traffic</text><text fill="#000000" font-family="sans-serif" font-size="13" lengthAdjust="spacing" textLength="114" x="388.21" y="385.2389">(host: nginx.local)</text></g><!--link nginx_ctr to metrics--><g id="link_nginx_ctr_metrics"><path d="M289.44,550.12 C286.73,564.17 284.52,582.61 287,598.85 C287.64,603.03 287.0371,601.6293 288.2271,605.8093 " fill="none" id="nginx_ctr-to-metrics" style="stroke:#181818;stroke-width:1.0;"/><polygon fill="#181818" points="289.87,611.58,291.2529,601.8287,288.501,606.7711,283.5586,604.0192,289.87,611.58" style="stroke:#181818;stroke-width:1.0;"/><text fill="#000000" font-family="sans-serif" font-size="13" lengthAdjust="spacing" textLength="127" x="288" y="595.4184">3. Container Metrics</text></g><!--link k6_ctr to metrics--><g id="link_k6_ctr_metrics"><path d="M479.82,550.21 C465.2,559.53 448.48,570.74 434,581.85 C425.01,588.74 424.88,593.3 415,598.85 C412.65,600.16 399.5205,604.2677 377.5905,610.7977 " fill="none" id="k6_ctr-to-metrics" style="stroke:#181818;stroke-width:1.0;"/><polygon fill="#181818" points="371.84,612.51,381.6073,613.7752,376.6321,611.0831,379.3242,606.1079,371.84,612.51" style="stroke:#181818;stroke-width:1.0;"/><text fill="#000000" font-family="sans-serif" font-size="13" lengthAdjust="spacing" textLength="127" x="435" y="595.4184">4. Load Test Metrics</text></g><!--link metrics to prometheus--><g id="link_metrics_prometheus"><path d="M312.65,658.53 C326.64,678.2 349.47,706.12 376,722.34 C429.35,754.94 494.5504,769.1509 541.9804,775.9309 " fill="none" id="metrics-to-prometheus" style="stroke:#181818;stroke-width:1.0;"/><polygon fill="#181818" points="547.92,776.78,539.5766,771.5467,542.9703,776.0725,538.4445,779.4662,547.92,776.78" style="stroke:#181818;stroke-width:1.0;"/><text fill="#000000" font-family="sans-serif" font-size="13" lengthAdjust="spacing" textLength="60" x="427.86" y="743.9084">5. Collect</text></g><!--link prometheus to grafana--><g id="link_prometheus_grafana"><path d="M547.58,805.1 C503.89,822.95 447.7743,845.8908 408.7343,861.8408 " fill="none" id="prometheus-to-grafana" style="stroke:#181818;stroke-width:1.0;"/><polygon fill="#181818" points="403.18,864.11,413.0243,864.409,407.8086,862.219,409.9987,857.0032,403.18,864.11" style="stroke:#181818;stroke-width:1.0;"/><text fill="#000000" font-family="sans-serif" font-size="13" lengthAdjust="spacing" textLength="72" x="511.22" y="832.3884">6. Visualize</text></g><!--link prometheus to rl_agent--><g id="link_prometheus_rl_agent"><path d="M611.29,806.17 C618.26,818.69 624.1816,829.3276 631.8416,843.0876 " fill="none" id="prometheus-to-rl_agent" style="stroke:#181818;stroke-width:1.0;"/><polygon fill="#181818" points="634.76,848.33,633.8774,838.5208,632.328,843.9613,626.8875,842.412,634.76,848.33" style="stroke:#181818;stroke-width:1.0;"/><text fill="#000000" font-family="sans-serif" font-size="13" lengthAdjust="spacing" textLength="95" x="628.09" y="832.3884">7. Feed Metrics</text></g><!--link metrics_server to prometheus--><g id="link_metrics_server_prometheus"><path d="M689.52,658.58 C669.23,686.26 638.5774,728.091 618.5274,755.441 " fill="none" id="metrics_server-to-prometheus" style="stroke:#181818;stroke-width:1.0;"/><polygon fill="#181818" points="614.98,760.28,623.5271,755.3865,617.9362,756.2475,617.0751,750.6566,614.98,760.28" style="stroke:#181818;stroke-width:1.0;"/><text fill="#000000" font-family="sans-serif" font-size="13" lengthAdjust="spacing" textLength="111" x="637.66" y="743.9084">8. Cluster Metrics</text></g><!--link rl_agent to api--><g id="link_rl_agent_api"><path d="M711.84,849.22 C717.32,845.15 722.49,840.68 727,835.82 C796.74,760.71 792.46,713.81 782,611.85 C764.58,441.91 824.84,356.23 704,235.49 C683.78,215.29 668.54,230.16 641,222.49 C638.32,221.75 641.33,222.687 638.57,221.847 " fill="none" id="rl_agent-to-api" style="stroke:#181818;stroke-width:1.0;"/><polygon fill="#181818" points="632.83,220.1,640.2754,226.5472,637.6134,221.5558,642.6047,218.8938,632.83,220.1" style="stroke:#181818;stroke-width:1.0;"/><text fill="#000000" font-family="sans-serif" font-size="13" lengthAdjust="spacing" textLength="127" x="781.69" y="595.4184">9. Scaling Decisions</text></g><!--link api to ctrl--><g id="link_api_ctrl"><path d="M578.1,222.78 C578.66,232.14 580.01,243.02 583,252.49 C585.75,261.19 587.1846,264.9003 591.7146,272.5903 " fill="none" id="api-to-ctrl" style="stroke:#181818;stroke-width:1.0;"/><polygon fill="#181818" points="594.76,277.76,593.6384,267.9752,592.2222,273.4519,586.7455,272.0357,594.76,277.76" style="stroke:#181818;stroke-width:1.0;"/><text fill="#000000" font-family="sans-serif" font-size="13" lengthAdjust="spacing" textLength="116" x="584" y="249.0584">10. Apply Replicas</text></g><!--link ctrl to nginx--><g id="link_ctrl_nginx"><path d="M572.98,324.85 C560.34,333.71 546.71,344.56 536,356.36 C524.88,368.61 530.93,379.43 517,388.36 C488.4,406.68 467.62,375.26 441,396.36 C429.27,405.6575 420.5881,418.2062 414.1645,431.843 C410.9527,438.6613 408.3055,445.7517 406.1241,452.8436 C405.5788,454.6166 405.0625,456.3897 404.5739,458.1586 C404.4517,458.6009 404.3313,459.0429 404.2125,459.4845 C404.1532,459.7053 405.6324,454.1266 405.5739,454.3473 " fill="none" id="ctrl-to-nginx" style="stroke:#181818;stroke-width:1.0;"/><polygon fill="#181818" points="404.0357,460.1467,410.2093,452.473,405.3175,455.3138,402.4766,450.4221,404.0357,460.1467" style="stroke:#181818;stroke-width:1.0;"/><text fill="#000000" font-family="sans-serif" font-size="13" lengthAdjust="spacing" textLength="90" x="537" y="377.4284">11. Scale Pods</text></g><!--link user to coredns--><g id="link_user_coredns"><path d="M74.66,219.27 C97.38,233.36 123.7313,249.7073 150.0413,266.0273 " fill="none" id="user-to-coredns" style="stroke:#181818;stroke-width:1.0;"/><polygon fill="#181818" points="155.14,269.19,149.6004,261.0467,150.8911,266.5544,145.3834,267.8451,155.14,269.19" style="stroke:#181818;stroke-width:1.0;"/><text fill="#000000" font-family="sans-serif" font-size="13" lengthAdjust="spacing" textLength="68" x="125.5" y="249.0584">DNS Query</text></g><!--link user to ingress--><g id="link_user_ingress"><path d="M74.8,206.76 C105.98,213.47 155.52,224.49 198,235.49 C249.31,248.79 301.002,263.7494 344.732,276.8394 " fill="none" id="user-to-ingress" style="stroke:#181818;stroke-width:1.0;"/><polygon fill="#181818" points="350.48,278.56,343.0051,272.1471,345.69,277.1262,340.7109,279.8111,350.48,278.56" style="stroke:#181818;stroke-width:1.0;"/><text fill="#000000" font-family="sans-serif" font-size="13" lengthAdjust="spacing" textLength="114" x="260.55" y="249.0584">http://nginx.local</text></g><!--link user to grafana--><g id="link_user_grafana"><path d="M30.07,222.73 C19.22,242.39 6,272.1 6,300.11 C6,300.11 6,300.11 6,784.08 C6,850.35 230.862,871.1711 322.842,876.9911 " fill="none" id="user-to-grafana" style="stroke:#181818;stroke-width:1.0;"/><polygon fill="#181818" points="328.83,877.37,320.1006,872.8096,323.84,877.0543,319.5954,880.7937,328.83,877.37" style="stroke:#181818;stroke-width:1.0;"/><text fill="#000000" font-family="sans-serif" font-size="13" lengthAdjust="spacing" textLength="138" x="7" y="595.4184">http://localhost:3000</text></g><!--link GMN36 to coredns--><g id="link_GMN36_coredns"><path d="M882.57,265 C854.51,256.35 823.64,248.36 794.5,243.99 C696.92,229.38 447.45,225.65 350.5,243.99 C317.84,250.18 283.12,263.52 255.79,275.76 " fill="none" id="GMN36-coredns" style="stroke:#181818;stroke-width:1.0;stroke-dasharray:7.0,7.0;"/></g><rect fill="#DDDDDD" height="145.9063" id="_legend" rx="7.5" ry="7.5" style="stroke:#000000;stroke-width:1.0;" width="264" x="808.5" y="992.8"/><text fill="#000000" font-family="sans-serif" font-size="14" lengthAdjust="spacing" textLength="38" x="817.5" y="1013.3352">Color</text><text fill="#000000" font-family="sans-serif" font-size="14" lengthAdjust="spacing" textLength="118" x="903.5" y="1013.3352">Component Type</text><text fill="#000000" font-family="sans-serif" font-size="14" lengthAdjust="spacing" text-decoration="line-through" textLength="8" x="813.5" y="1029.8234">-</text><text fill="#000000" font-family="sans-serif" font-size="14" lengthAdjust="spacing" text-decoration="line-through" textLength="8" x="821.5" y="1029.8234">-</text><text fill="#000000" font-family="sans-serif" font-size="14" lengthAdjust="spacing" textLength="16" x="829.5" y="1029.8234">--</text><text fill="#000000" font-family="sans-serif" font-size="14" lengthAdjust="spacing" text-decoration="line-through" textLength="8" x="899.5" y="1029.8234">-</text><text fill="#000000" font-family="sans-serif" font-size="14" lengthAdjust="spacing" text-decoration="line-through" textLength="8" x="907.5" y="1029.8234">-</text><text fill="#000000" font-family="sans-serif" font-size="14" lengthAdjust="spacing" text-decoration="line-through" textLength="8" x="915.5" y="1029.8234">-</text><text fill="#000000" font-family="sans-serif" font-size="14" lengthAdjust="spacing" text-decoration="line-through" textLength="8" x="923.5" y="1029.8234">-</text><text fill="#000000" font-family="sans-serif" font-size="14" lengthAdjust="spacing" textLength="16" x="931.5" y="1029.8234">--</text><text fill="#000000" font-family="sans-serif" font-size="14" lengthAdjust="spacing" textLength="62" x="817.5" y="1046.3117">#FFD700</text><text fill="#000000" font-family="sans-serif" font-size="14" lengthAdjust="spacing" textLength="103" x="903.5" y="1046.3117">DNS (CoreDNS)</text><text fill="#000000" font-family="sans-serif" font-size="14" lengthAdjust="spacing" textLength="59" x="817.5" y="1062.8">#00BFFF</text><text fill="#000000" font-family="sans-serif" font-size="14" lengthAdjust="spacing" textLength="124" x="903.5" y="1062.8">Ingress Controller</text><text fill="#000000" font-family="sans-serif" font-size="14" lengthAdjust="spacing" textLength="65" x="817.5" y="1079.2883">#32CD32</text><text fill="#000000" font-family="sans-serif" font-size="14" lengthAdjust="spacing" textLength="76" x="903.5" y="1079.2883">Monitoring</text><text fill="#000000" font-family="sans-serif" font-size="14" lengthAdjust="spacing" textLength="60" x="817.5" y="1095.7766">#FF69B4</text><text fill="#000000" font-family="sans-serif" font-size="14" lengthAdjust="spacing" textLength="164" x="903.5" y="1095.7766">Reinforcement Learning</text><text fill="#000000" font-family="sans-serif" font-size="14" lengthAdjust="spacing" textLength="63" x="817.5" y="1112.2648">#FFA07A</text><text fill="#000000" font-family="sans-serif" font-size="14" lengthAdjust="spacing" textLength="122" x="903.5" y="1112.2648">Metrics Collection</text><text fill="#000000" font-family="sans-serif" font-size="14" lengthAdjust="spacing" textLength="66" x="817.5" y="1128.7531">#D3D3D3</text><text fill="#000000" font-family="sans-serif" font-size="14" lengthAdjust="spacing" textLength="81" x="903.5" y="1128.7531">Autoscaling</text><line style="stroke:#000000;stroke-width:1.0;" x1="813.5" x2="1067.5" y1="999.8" y2="999.8"/><line style="stroke:#000000;stroke-width:1.0;" x1="813.5" x2="1067.5" y1="1016.2883" y2="1016.2883"/><line style="stroke:#000000;stroke-width:1.0;" x1="813.5" x2="1067.5" y1="1032.7766" y2="1032.7766"/><line style="stroke:#000000;stroke-width:1.0;" x1="813.5" x2="1067.5" y1="1049.2648" y2="1049.2648"/><line style="stroke:#000000;stroke-width:1.0;" x1="813.5" x2="1067.5" y1="1065.7531" y2="1065.7531"/><line style="stroke:#000000;stroke-width:1.0;" x1="813.5" x2="1067.5" y1="1082.2414" y2="1082.2414"/><line style="stroke:#000000;stroke-width:1.0;" x1="813.5" x2="1067.5" y1="1098.7297" y2="1098.7297"/><line style="stroke:#000000;stroke-width:1.0;" x1="813.5" x2="1067.5" y1="1115.218" y2="1115.218"/><line style="stroke:#000000;stroke-width:1.0;" x1="813.5" x2="1067.5" y1="1131.7063" y2="1131.7063"/><line style="stroke:#000000;stroke-width:1.0;" x1="813.5" x2="813.5" y1="999.8" y2="1131.7063"/><line style="stroke:#000000;stroke-width:1.0;" x1="899.5" x2="899.5" y1="999.8" y2="1131.7063"/><line style="stroke:#000000;stroke-width:1.0;" x1="1067.5" x2="1067.5" y1="999.8" y2="1131.7063"/><!--SRC=[TLNXRjis4FwlfpYemDe6aEF4ZTC6HG0thjjWYUl6MRSV1G96ect2D2cGLDji2x1dsQFjINOdah9KEpPWYRplkplVVKS-1xiMgcI6RM2ZbSvNHcyuE5FnP6knArRexq8jOS6aRLkKBhZb9HoTj3ODKslQF3v94iDpnzHISaYlMVvf3X-rTIdybG2qJPLqecJMmfThR-oQHMxqhwyjNCZAEcuY123Ncr8hhXoa5zhmyNIU0hEuRNYXBBnzYpldv_1iCXcVzlkxf4krDDpQRFhXSlf7JHL-1wd1HlH-_zraCWdqy2YOO_VCOdeV35imnMhwqh_3iy7nnNXml1lnvWf6ItohqKRUCLfWjDdiq-7uyzGdEtppxjLEc1crngruPMjksIo9CUgVZdQ3NNDdH6vXpiqtAXlIDdxhpjPRFr73WxeAwU_Qh14nnSMsu9s-p7Hn1cefr8_QTVtMGdPIgOrPhfLZGeLSwhsxt9dzb91gPaN1SzP9lo4yDczF9hWUPbApmd7hYxuUFfKZ8hi9heUTx6Amnttbka2cqH9cagbEmLe1HhFBTYzOAVQXvlcA5vKC81jN-w0XA5hX6cMt31nCMdPofT_7v359dWDE1Fm2GTo03XJMIsXbapWrcH7BbSlEcrauW_Ie1pVSQlcDVrNauNF5ZU0sJI8cmnD28QVfAR6EaQKhn-4Mns8Xyg_gnGhdFuYc9tNEvCkKiefAdKZzFTdwoD1ZQ3dv6_GeOT-WI4aJtwMViQzwS8LjXrli-nOR0GHkJH3YJyWtLZ9tQTAo430EDQA6FVWYRCMa-9Flu9fnHk1f3oQS5pkHu-3j9l2w5y-tBGahWmV6cEV2OejyTPeev08bHDmtFPXZBUc8Zc1aav5098UwYVqUZCfIFc0lIoboXfZQbiN6rQWZxum3Ze_FuVqFp4en2QCynsOdkTHL0UblDkYjmfU4Ve2Y1HcXgwYKXpHOkw9QELUU7HwsnD32jOeUS3MYri-Wt-_NYLrnh4IHoFe1jMvHwNzJ9xK9uqAhE32t3oMFsmJCMf_EehLTEmmtYFT7V-j5k6zUGjjVl2eyhZLaSKeRdByVFEvQA-6qeUvjFqrSkWmyxeOBjT0cvnlwBrUS6OMS1aW7UN0OL1u4JT9f78u7zFMuKUMq3Rff1SPQ-eecYT8ulP8l7EX5x2pwEJXuhzYz97t7ktbK52YwiuC3DF_tpx-m8SCQ3Rn6WYVkimH5F67LzpGnx5v8uHueDQ2Saly1]--></g></svg>