<?xml version="1.0" encoding="us-ascii" standalone="no"?><svg xmlns="http://www.w3.org/2000/svg" xmlns:xlink="http://www.w3.org/1999/xlink" contentStyleType="text/css" height="1143px" preserveAspectRatio="none" style="width:1698px;height:1143px;background:#FFFFFF;" version="1.1" viewBox="0 0 1698 1143" width="1698px" zoomAndPan="magnify"><defs/><g><!--cluster MacOS Host--><g id="cluster_MacOS Host"><rect fill="none" height="863.55" rx="2.5" ry="2.5" style="stroke:#181818;stroke-width:1.0;" width="1448" x="7" y="97.2723"/><text fill="#000000" font-family="sans-serif" font-size="14" font-weight="bold" lengthAdjust="spacing" textLength="87" x="687.5" y="112.8074">MacOS Host</text></g><!--cluster Multipass VM--><g id="cluster_Multipass VM"><rect fill="none" height="796.55" rx="2.5" ry="2.5" style="stroke:#181818;stroke-width:1.0;" width="1400" x="31" y="140.2723"/><text fill="#000000" font-family="sans-serif" font-size="14" font-weight="bold" lengthAdjust="spacing" textLength="99" x="681.5" y="155.8074">Multipass VM</text></g><!--cluster MicroK8s Cluster--><g id="cluster_MicroK8s Cluster"><rect fill="none" height="729.55" rx="2.5" ry="2.5" style="stroke:#181818;stroke-width:1.0;" width="1352" x="55" y="183.2723"/><text fill="#000000" font-family="sans-serif" font-size="14" font-weight="bold" lengthAdjust="spacing" textLength="124" x="669" y="198.8074">MicroK8s Cluster</text></g><!--cluster Worker Node--><g id="cluster_Worker Node"><polygon fill="none" points="79,356.3823,89,346.3823,751,346.3823,751,689.3623,741,699.3623,79,699.3623,79,356.3823" style="stroke:#181818;stroke-width:1.0;"/><line style="stroke:#181818;stroke-width:1.0;" x1="741" x2="751" y1="356.3823" y2="346.3823"/><line style="stroke:#181818;stroke-width:1.0;" x1="79" x2="741" y1="356.3823" y2="356.3823"/><line style="stroke:#181818;stroke-width:1.0;" x1="741" x2="741" y1="356.3823" y2="699.3623"/><text fill="#000000" font-family="sans-serif" font-size="14" font-weight="bold" lengthAdjust="spacing" textLength="93" x="364.5" y="372.9174">Worker Node</text></g><!--cluster nginx--><g id="cluster_nginx"><rect fill="none" height="264.98" rx="2.5" ry="2.5" style="stroke:#181818;stroke-width:1.0;" width="210" x="111" y="402.3823"/><text fill="#000000" font-family="sans-serif" font-size="14" font-weight="bold" lengthAdjust="spacing" textLength="75" x="178.5" y="417.9174">Pod: nginx</text></g><!--cluster k6--><g id="cluster_k6"><rect fill="none" height="97.49" rx="2.5" ry="2.5" style="stroke:#181818;stroke-width:1.0;" width="162" x="353" y="410.3823"/><text fill="#000000" font-family="sans-serif" font-size="14" font-weight="bold" lengthAdjust="spacing" textLength="121" x="373.5" y="425.9174">Pod: k6-loadtest</text></g><!--cluster Control Plane--><g id="cluster_Control Plane"><polygon fill="none" points="919,566.8723,929,556.8723,1373,556.8723,1373,649.3623,1363,659.3623,919,659.3623,919,566.8723" style="stroke:#181818;stroke-width:1.0;"/><line style="stroke:#181818;stroke-width:1.0;" x1="1363" x2="1373" y1="566.8723" y2="556.8723"/><line style="stroke:#181818;stroke-width:1.0;" x1="919" x2="1363" y1="566.8723" y2="566.8723"/><line style="stroke:#181818;stroke-width:1.0;" x1="1363" x2="1363" y1="566.8723" y2="659.3623"/><text fill="#000000" font-family="sans-serif" font-size="14" font-weight="bold" lengthAdjust="spacing" textLength="98" x="1093" y="583.4074">Control Plane</text></g><!--entity coredns--><g id="elem_coredns"><rect fill="#FFD700" height="62.9766" rx="2.5" ry="2.5" style="stroke:#181818;stroke-width:0.5;" width="101" x="1036.5" y="218.2723"/><rect fill="#FFD700" height="10" style="stroke:#181818;stroke-width:0.5;" width="15" x="1117.5" y="223.2723"/><rect fill="#FFD700" height="2" style="stroke:#181818;stroke-width:0.5;" width="4" x="1115.5" y="225.2723"/><rect fill="#FFD700" height="2" style="stroke:#181818;stroke-width:0.5;" width="4" x="1115.5" y="229.2723"/><text fill="#000000" font-family="sans-serif" font-size="14" font-style="italic" lengthAdjust="spacing" textLength="42" x="1061" y="251.8074">&#171;DNS&#187;</text><text fill="#000000" font-family="sans-serif" font-size="14" lengthAdjust="spacing" textLength="61" x="1051.5" y="268.2957">CoreDNS</text></g><!--entity ingress--><g id="elem_ingress"><rect fill="#00BFFF" height="62.9766" rx="2.5" ry="2.5" style="stroke:#181818;stroke-width:0.5;" width="141" x="1232.5" y="218.2723"/><rect fill="#00BFFF" height="10" style="stroke:#181818;stroke-width:0.5;" width="15" x="1353.5" y="223.2723"/><rect fill="#00BFFF" height="2" style="stroke:#181818;stroke-width:0.5;" width="4" x="1351.5" y="225.2723"/><rect fill="#00BFFF" height="2" style="stroke:#181818;stroke-width:0.5;" width="4" x="1351.5" y="229.2723"/><text fill="#000000" font-family="sans-serif" font-size="14" font-style="italic" lengthAdjust="spacing" textLength="64" x="1266" y="251.8074">&#171;Ingress&#187;</text><text fill="#000000" font-family="sans-serif" font-size="14" lengthAdjust="spacing" textLength="101" x="1247.5" y="268.2957">Ingress-NGINX</text></g><!--entity grafana--><g id="elem_grafana"><path d="M1116,852.5923 C1116,842.5923 1153,842.5923 1153,842.5923 C1153,842.5923 1190,842.5923 1190,852.5923 L1190,878.0805 C1190,888.0805 1153,888.0805 1153,888.0805 C1153,888.0805 1116,888.0805 1116,878.0805 L1116,852.5923 " fill="#32CD32" style="stroke:#181818;stroke-width:0.5;"/><path d="M1116,852.5923 C1116,862.5923 1153,862.5923 1153,862.5923 C1153,862.5923 1190,862.5923 1190,852.5923 " fill="none" style="stroke:#181818;stroke-width:0.5;"/><text fill="#000000" font-family="sans-serif" font-size="14" lengthAdjust="spacing" textLength="54" x="1126" y="880.1274">Grafana</text></g><!--entity rl_agent--><g id="elem_rl_agent"><rect fill="#FF69B4" height="62.9766" rx="2.5" ry="2.5" style="stroke:#181818;stroke-width:0.5;" width="119" x="878.5" y="833.8423"/><rect fill="#FF69B4" height="10" style="stroke:#181818;stroke-width:0.5;" width="15" x="977.5" y="838.8423"/><rect fill="#FF69B4" height="2" style="stroke:#181818;stroke-width:0.5;" width="4" x="975.5" y="840.8423"/><rect fill="#FF69B4" height="2" style="stroke:#181818;stroke-width:0.5;" width="4" x="975.5" y="844.8423"/><text fill="#000000" font-family="sans-serif" font-size="14" font-style="italic" lengthAdjust="spacing" textLength="79" x="893.5" y="867.3774">&#171;PPO/DQN&#187;</text><text fill="#000000" font-family="sans-serif" font-size="14" lengthAdjust="spacing" textLength="61" x="902.5" y="883.8657">RL Agent</text></g><!--entity prometheus--><g id="elem_prometheus"><path d="M823,755.3623 C823,745.3623 874,745.3623 874,745.3623 C874,745.3623 925,745.3623 925,755.3623 L925,780.8505 C925,790.8505 874,790.8505 874,790.8505 C874,790.8505 823,790.8505 823,780.8505 L823,755.3623 " fill="#FFA07A" style="stroke:#181818;stroke-width:0.5;"/><path d="M823,755.3623 C823,765.3623 874,765.3623 874,765.3623 C874,765.3623 925,765.3623 925,755.3623 " fill="none" style="stroke:#181818;stroke-width:0.5;"/><text fill="#000000" font-family="sans-serif" font-size="14" lengthAdjust="spacing" textLength="82" x="833" y="782.8974">Prometheus</text></g><!--entity metrics_server--><g id="elem_metrics_server"><rect fill="#FFA07A" height="46.4883" rx="2.5" ry="2.5" style="stroke:#181818;stroke-width:0.5;" width="136" x="767" y="596.8723"/><rect fill="#FFA07A" height="10" style="stroke:#181818;stroke-width:0.5;" width="15" x="883" y="601.8723"/><rect fill="#FFA07A" height="2" style="stroke:#181818;stroke-width:0.5;" width="4" x="881" y="603.8723"/><rect fill="#FFA07A" height="2" style="stroke:#181818;stroke-width:0.5;" width="4" x="881" y="607.8723"/><text fill="#000000" font-family="sans-serif" font-size="14" lengthAdjust="spacing" textLength="96" x="782" y="630.4074">Metrics Server</text></g><!--entity hpa--><g id="elem_hpa"><rect fill="#D3D3D3" height="52.9766" rx="2.5" ry="2.5" style="stroke:#181818;stroke-width:0.5;" width="205" x="530.5" y="442.1323"/><text fill="#000000" font-family="sans-serif" font-size="14" font-style="italic" lengthAdjust="spacing" textLength="185" x="540.5" y="465.6674">&#171;HorizontalPodAutoscaler&#187;</text><text fill="#000000" font-family="sans-serif" font-size="14" lengthAdjust="spacing" textLength="28" x="619" y="482.1557">HPA</text></g><!--entity nginx_ctr--><g id="elem_nginx_ctr"><rect fill="#F1F1F1" height="46.4883" rx="2.5" ry="2.5" style="stroke:#181818;stroke-width:0.5;" width="153" x="135.5" y="445.3823"/><rect fill="#F1F1F1" height="10" style="stroke:#181818;stroke-width:0.5;" width="15" x="268.5" y="450.3823"/><rect fill="#F1F1F1" height="2" style="stroke:#181818;stroke-width:0.5;" width="4" x="266.5" y="452.3823"/><rect fill="#F1F1F1" height="2" style="stroke:#181818;stroke-width:0.5;" width="4" x="266.5" y="456.3823"/><text fill="#000000" font-family="sans-serif" font-size="14" lengthAdjust="spacing" textLength="113" x="150.5" y="478.9174">nginx-container</text></g><!--entity metrics--><g id="elem_metrics"><rect fill="#F1F1F1" height="46.4883" rx="2.5" ry="2.5" style="stroke:#181818;stroke-width:0.5;" width="147" x="141.5" y="596.8723"/><rect fill="#F1F1F1" height="10" style="stroke:#181818;stroke-width:0.5;" width="15" x="268.5" y="601.8723"/><rect fill="#F1F1F1" height="2" style="stroke:#181818;stroke-width:0.5;" width="4" x="266.5" y="603.8723"/><rect fill="#F1F1F1" height="2" style="stroke:#181818;stroke-width:0.5;" width="4" x="266.5" y="607.8723"/><text fill="#000000" font-family="sans-serif" font-size="14" lengthAdjust="spacing" textLength="107" x="156.5" y="630.4074">metrics-sidecar</text></g><!--entity k6_ctr--><g id="elem_k6_ctr"><rect fill="#F1F1F1" height="46.4883" rx="2.5" ry="2.5" style="stroke:#181818;stroke-width:0.5;" width="130" x="369" y="445.3823"/><rect fill="#F1F1F1" height="10" style="stroke:#181818;stroke-width:0.5;" width="15" x="479" y="450.3823"/><rect fill="#F1F1F1" height="2" style="stroke:#181818;stroke-width:0.5;" width="4" x="477" y="452.3823"/><rect fill="#F1F1F1" height="2" style="stroke:#181818;stroke-width:0.5;" width="4" x="477" y="456.3823"/><text fill="#000000" font-family="sans-serif" font-size="14" lengthAdjust="spacing" textLength="90" x="384" y="478.9174">k6-container</text></g><!--entity api--><g id="elem_api"><rect fill="#F1F1F1" height="46.4883" rx="2.5" ry="2.5" style="stroke:#181818;stroke-width:0.5;" width="109" x="935.5" y="596.8723"/><rect fill="#F1F1F1" height="10" style="stroke:#181818;stroke-width:0.5;" width="15" x="1024.5" y="601.8723"/><rect fill="#F1F1F1" height="2" style="stroke:#181818;stroke-width:0.5;" width="4" x="1022.5" y="603.8723"/><rect fill="#F1F1F1" height="2" style="stroke:#181818;stroke-width:0.5;" width="4" x="1022.5" y="607.8723"/><text fill="#000000" font-family="sans-serif" font-size="14" lengthAdjust="spacing" textLength="69" x="950.5" y="630.4074">API Server</text></g><!--entity scheduler--><g id="elem_scheduler"><rect fill="#F1F1F1" height="46.4883" rx="2.5" ry="2.5" style="stroke:#181818;stroke-width:0.5;" width="108" x="1060" y="596.8723"/><rect fill="#F1F1F1" height="10" style="stroke:#181818;stroke-width:0.5;" width="15" x="1148" y="601.8723"/><rect fill="#F1F1F1" height="2" style="stroke:#181818;stroke-width:0.5;" width="4" x="1146" y="603.8723"/><rect fill="#F1F1F1" height="2" style="stroke:#181818;stroke-width:0.5;" width="4" x="1146" y="607.8723"/><text fill="#000000" font-family="sans-serif" font-size="14" lengthAdjust="spacing" textLength="68" x="1075" y="630.4074">Scheduler</text></g><!--entity ctrl--><g id="elem_ctrl"><rect fill="#F1F1F1" height="46.4883" rx="2.5" ry="2.5" style="stroke:#181818;stroke-width:0.5;" width="174" x="1183" y="596.8723"/><rect fill="#F1F1F1" height="10" style="stroke:#181818;stroke-width:0.5;" width="15" x="1337" y="601.8723"/><rect fill="#F1F1F1" height="2" style="stroke:#181818;stroke-width:0.5;" width="4" x="1335" y="603.8723"/><rect fill="#F1F1F1" height="2" style="stroke:#181818;stroke-width:0.5;" width="4" x="1335" y="607.8723"/><text fill="#000000" font-family="sans-serif" font-size="14" lengthAdjust="spacing" textLength="134" x="1198" y="630.4074">Controller Manager</text></g><!--entity user--><g id="elem_user"><path d="M1264.1198,14.3512 C1266.2827,8.649 1271.2985,7.3888 1275.2098,12.5695 C1277.6266,7.6036 1281.745,6.575 1285.6898,10.8336 C1289.8008,6 1294.7456,8.2903 1296.5681,13.35 C1299.8861,7.2 1303.8565,8.4272 1307.6834,12.8131 C1316.8457,15.8984 1319.3178,22.0047 1311.8948,29.3211 C1318.3331,35.4969 1317.484,40.2505 1309.4377,44.0021 C1308.6703,51.5392 1303.893,53.8307 1297.6011,49.5226 C1295.4778,56.0864 1291.3489,58.2872 1285.1609,54.3275 C1279.2792,58.4382 1276.0428,56.4161 1274.5135,49.9472 C1268.7979,52.2973 1264.3836,51.4602 1264.2991,44.0526 C1255.7581,41.054 1254.109,33.5727 1261.9352,28.1422 C1256.1769,22.7146 1257.7993,17.8654 1264.1198,14.3512 " fill="#F1F1F1" style="stroke:#181818;stroke-width:0.5;"/><text fill="#000000" font-family="sans-serif" font-size="14" lengthAdjust="spacing" textLength="31" x="1269.5" y="33.3174">User</text></g><g id="elem_GMN37"><path d="M1470.5,214.1423 L1470.5,285.3844 L1691.5,285.3844 L1691.5,224.1423 L1681.5,214.1423 L1470.5,214.1423 " fill="#FEFFDD" style="stroke:#181818;stroke-width:0.5;"/><path d="M1681.5,214.1423 L1681.5,224.1423 L1691.5,224.1423 L1681.5,214.1423 " fill="#FEFFDD" style="stroke:#181818;stroke-width:1.0;"/><text fill="#000000" font-family="sans-serif" font-size="13" font-weight="bold" lengthAdjust="spacing" textLength="180" x="1476.5" y="231.7106">Enabled MicroK8s Addons:</text><text fill="#000000" font-family="sans-serif" font-size="13" lengthAdjust="spacing" textLength="142" x="1476.5" y="247.0212">&#8226; microk8s enable dns</text><text fill="#000000" font-family="sans-serif" font-size="13" lengthAdjust="spacing" textLength="165" x="1476.5" y="262.3317">&#8226; microk8s enable ingress</text><text fill="#000000" font-family="sans-serif" font-size="13" lengthAdjust="spacing" textLength="200" x="1476.5" y="277.6423">&#8226; microk8s enable observability</text></g><!--link coredns to ingress--><g id="link_coredns_ingress"><path d="M1137.92,249.7623 C1166.1,249.7623 1195.57,249.7623 1226.4,249.7623 " fill="none" id="coredns-to-ingress" style="stroke:#181818;stroke-width:1.0;"/><polygon fill="#181818" points="1232.4,249.7623,1223.4,245.7623,1227.4,249.7623,1223.4,253.7623,1232.4,249.7623" style="stroke:#181818;stroke-width:1.0;"/><text fill="#000000" font-family="sans-serif" font-size="13" lengthAdjust="spacing" textLength="64" x="1153" y="228.3306">1. Resolve</text><text fill="#000000" font-family="sans-serif" font-size="13" lengthAdjust="spacing" textLength="79" x="1145.5" y="243.6412">DNS Queries</text></g><!--link ingress to nginx_ctr--><g id="link_ingress_nginx_ctr"><path d="M1232.24,268.6923 C1205.12,274.9223 1173.78,281.3523 1145,285.3823 C1051.06,298.5123 374.52,289.8923 293,338.3823 C252.83,362.2723 231.5337,408.9897 220.9437,439.2197 " fill="none" id="ingress-to-nginx_ctr" style="stroke:#181818;stroke-width:1.0;"/><polygon fill="#181818" points="218.96,444.8823,225.7106,437.7108,220.6131,440.1634,218.1605,435.0659,218.96,444.8823" style="stroke:#181818;stroke-width:1.0;"/><text fill="#000000" font-family="sans-serif" font-size="13" lengthAdjust="spacing" textLength="97" x="723.84" y="311.9506">2. Route Traffic</text><text fill="#000000" font-family="sans-serif" font-size="13" lengthAdjust="spacing" textLength="114" x="715.34" y="327.2612">(host: nginx.local)</text></g><!--link nginx_ctr to metrics--><g id="link_nginx_ctr_metrics"><path d="M212.46,492.3323 C213.02,520.5923 213.8706,562.5534 214.4306,590.6834 " fill="none" id="nginx_ctr-to-metrics" style="stroke:#181818;stroke-width:1.0;"/><polygon fill="#181818" points="214.55,596.6823,218.3701,587.6044,214.4505,591.6832,210.3717,587.7637,214.55,596.6823" style="stroke:#181818;stroke-width:1.0;"/><text fill="#000000" font-family="sans-serif" font-size="13" lengthAdjust="spacing" textLength="127" x="214.41" y="537.4406">3. Container Metrics</text></g><!--link k6_ctr to metrics--><g id="link_k6_ctr_metrics"><path d="M412.43,492.3623 C395.65,508.5923 370.91,529.4923 345,540.8723 C323.59,550.2723 314.13,538.8523 293,548.8723 C269.45,560.0323 251.9018,576.1897 237.4318,592.2097 " fill="none" id="k6_ctr-to-metrics" style="stroke:#181818;stroke-width:1.0;"/><polygon fill="#181818" points="233.41,596.6623,242.411,592.6646,236.7615,592.9518,236.4743,587.3022,233.41,596.6623" style="stroke:#181818;stroke-width:1.0;"/><text fill="#000000" font-family="sans-serif" font-size="13" lengthAdjust="spacing" textLength="127" x="373.07" y="537.4406">4. Load Test Metrics</text></g><!--link metrics to prometheus--><g id="link_metrics_prometheus"><path d="M228.55,643.7923 C242.09,664.2123 264.91,693.1223 293,707.3623 C385.15,754.0523 692.651,764.155 816.791,766.375 " fill="none" id="metrics-to-prometheus" style="stroke:#181818;stroke-width:1.0;"/><polygon fill="#181818" points="822.79,766.4823,813.863,762.322,817.7908,766.3929,813.7199,770.3207,822.79,766.4823" style="stroke:#181818;stroke-width:1.0;"/><text fill="#000000" font-family="sans-serif" font-size="13" lengthAdjust="spacing" textLength="60" x="373.07" y="728.9306">5. Collect</text></g><!--link prometheus to grafana--><g id="link_prometheus_grafana"><path d="M925.4,780.6223 C950.55,786.7123 981.12,794.8023 1008,803.8423 C1045.36,816.4123 1081.2655,831.6067 1110.2255,844.5967 " fill="none" id="prometheus-to-grafana" style="stroke:#181818;stroke-width:1.0;"/><polygon fill="#181818" points="1115.7,847.0523,1109.1253,839.7192,1111.1379,845.0059,1105.8512,847.0185,1115.7,847.0523" style="stroke:#181818;stroke-width:1.0;"/><text fill="#000000" font-family="sans-serif" font-size="13" lengthAdjust="spacing" textLength="72" x="1053.54" y="817.4106">6. Visualize</text></g><!--link prometheus to rl_agent--><g id="link_prometheus_rl_agent"><path d="M888.84,791.1923 C897.26,803.7123 904.5826,814.6128 913.8326,828.3728 " fill="none" id="prometheus-to-rl_agent" style="stroke:#181818;stroke-width:1.0;"/><polygon fill="#181818" points="917.18,833.3523,915.4786,823.6515,914.3905,829.2027,908.8393,828.1147,917.18,833.3523" style="stroke:#181818;stroke-width:1.0;"/><text fill="#000000" font-family="sans-serif" font-size="13" lengthAdjust="spacing" textLength="95" x="908.92" y="817.4106">7. Feed Metrics</text></g><!--link metrics_server to prometheus--><g id="link_metrics_server_prometheus"><path d="M841.01,643.6023 C848.4,671.2823 859.3207,712.1557 866.6307,739.5057 " fill="none" id="metrics_server-to-prometheus" style="stroke:#181818;stroke-width:1.0;"/><polygon fill="#181818" points="868.18,745.3023,869.7204,735.5746,866.8889,740.4718,861.9917,737.6403,868.18,745.3023" style="stroke:#181818;stroke-width:1.0;"/><text fill="#000000" font-family="sans-serif" font-size="13" lengthAdjust="spacing" textLength="111" x="865.58" y="728.9306">8. Cluster Metrics</text></g><!--link rl_agent to hpa--><g id="link_rl_agent_hpa"><path d="M997.99,857.1923 C1036.91,851.0223 1088.01,839.9723 1130,820.8423 C1202.2,787.9523 1199.71,743.2023 1274,715.3623 C1293.63,708.0023 1353.82,722.7923 1368,707.3623 C1391.82,681.4223 1391.53,575.0723 1368,548.8723 C1326.54,502.7023 934.335,481.306 741.985,473.486 " fill="none" id="rl_agent-to-hpa" style="stroke:#181818;stroke-width:1.0;"/><polygon fill="#181818" points="735.99,473.2423,744.8201,477.6045,740.9859,473.4454,745.1451,469.6111,735.99,473.2423" style="stroke:#181818;stroke-width:1.0;"/><text fill="#000000" font-family="sans-serif" font-size="13" lengthAdjust="spacing" textLength="127" x="1275" y="728.9306">9. Scaling Decisions</text></g><!--link hpa to api--><g id="link_hpa_api"><path d="M645.11,495.5223 C654.18,511.6723 668.25,531.1723 687,540.8723 C711.09,553.3323 906.6,537.0123 931,548.8723 C951.77,558.9623 964.8003,575.0493 974.9203,591.5293 " fill="none" id="hpa-to-api" style="stroke:#181818;stroke-width:1.0;"/><polygon fill="#181818" points="978.06,596.6423,976.759,586.8797,975.4436,592.3815,969.9418,591.066,978.06,596.6423" style="stroke:#181818;stroke-width:1.0;"/><text fill="#000000" font-family="sans-serif" font-size="13" lengthAdjust="spacing" textLength="116" x="688" y="537.4406">10. Apply Replicas</text></g><!--link api to nginx--><g id="link_api_nginx"><path d="M978.09,596.5723 C967.99,580.0623 951.83,558.8523 931,548.8723 C912.36,539.9323 579.41,544.1723 559,540.8723 C533.74,536.7723 529.18,528.3823 504,523.8723 C472.02,518.1423 387.58,529.3223 358,515.8723 C345.355,510.1173 334.4025,499.0873 326.47,489.2423 C324.4869,486.781 326.1869,489.2713 324.602,487.0591 " fill="none" id="api-to-nginx" style="stroke:#181818;stroke-width:1.0;"/><polygon fill="#181818" points="321.1076,482.1816,323.0975,491.8274,324.0196,486.2462,329.6008,487.1682,321.1076,482.1816" style="stroke:#181818;stroke-width:1.0;"/><text fill="#000000" font-family="sans-serif" font-size="13" lengthAdjust="spacing" textLength="90" x="560" y="537.4406">11. Scale Pods</text></g><!--link user to coredns--><g id="link_user_coredns"><path d="M1254.19,39.9423 C1240.59,45.7623 1225,53.8923 1213,64.2723 C1161.82,108.5623 1124.5881,172.8433 1104.3381,212.6933 " fill="none" id="user-to-coredns" style="stroke:#181818;stroke-width:1.0;"/><polygon fill="#181818" points="1101.62,218.0423,1109.2632,211.8308,1103.8851,213.5848,1102.1312,208.2067,1101.62,218.0423" style="stroke:#181818;stroke-width:1.0;"/><text fill="#000000" font-family="sans-serif" font-size="13" lengthAdjust="spacing" textLength="68" x="1214" y="77.8406">DNS Query</text></g><!--link user to ingress--><g id="link_user_ingress"><path d="M1285.59,51.6723 C1285.9,60.8623 1286.35,71.5823 1287,81.2723 C1290.2,129.0723 1295.2097,178.3976 1298.8697,211.9676 " fill="none" id="user-to-ingress" style="stroke:#181818;stroke-width:1.0;"/><polygon fill="#181818" points="1299.52,217.9323,1302.521,208.5517,1298.9781,212.9617,1294.5681,209.4188,1299.52,217.9323" style="stroke:#181818;stroke-width:1.0;"/><text fill="#000000" font-family="sans-serif" font-size="13" lengthAdjust="spacing" textLength="114" x="1288" y="77.8406">http://nginx.local</text></g><!--link user to grafana--><g id="link_user_grafana"><path d="M1315.97,29.1523 C1343.21,31.0923 1381.61,38.6123 1402,64.2723 C1453.13,128.5923 1414,166.5923 1414,248.7623 C1414,248.7623 1414,248.7623 1414,769.1023 C1414,816.1323 1268.4797,845.7937 1196.3097,857.7237 " fill="none" id="user-to-grafana" style="stroke:#181818;stroke-width:1.0;"/><polygon fill="#181818" points="1190.39,858.7023,1199.9219,861.1809,1195.3231,857.8868,1198.6171,853.288,1190.39,858.7023" style="stroke:#181818;stroke-width:1.0;"/><text fill="#000000" font-family="sans-serif" font-size="13" lengthAdjust="spacing" textLength="138" x="1415" y="537.4406">http://localhost:3000</text></g><!--link GMN37 to coredns--><g id="link_GMN37_coredns"><path d="M1561.16,213.9323 C1534.83,170.5223 1483.82,99.5723 1417.5,70.2723 C1379.89,53.6623 1269.61,52.5823 1232.5,70.2723 C1168.23,100.9123 1123.13,175.3523 1101.52,218.1223 " fill="none" id="GMN37-coredns" style="stroke:#181818;stroke-width:1.0;stroke-dasharray:7.0,7.0;"/></g><rect fill="#DDDDDD" height="145.9063" id="_legend" rx="7.5" ry="7.5" style="stroke:#000000;stroke-width:1.0;" width="264" x="1408.5" y="977.8223"/><text fill="#000000" font-family="sans-serif" font-size="14" lengthAdjust="spacing" textLength="38" x="1417.5" y="998.3574">Color</text><text fill="#000000" font-family="sans-serif" font-size="14" lengthAdjust="spacing" textLength="118" x="1503.5" y="998.3574">Component Type</text><text fill="#000000" font-family="sans-serif" font-size="14" lengthAdjust="spacing" text-decoration="line-through" textLength="8" x="1413.5" y="1014.8457">-</text><text fill="#000000" font-family="sans-serif" font-size="14" lengthAdjust="spacing" text-decoration="line-through" textLength="8" x="1421.5" y="1014.8457">-</text><text fill="#000000" font-family="sans-serif" font-size="14" lengthAdjust="spacing" textLength="16" x="1429.5" y="1014.8457">--</text><text fill="#000000" font-family="sans-serif" font-size="14" lengthAdjust="spacing" text-decoration="line-through" textLength="8" x="1499.5" y="1014.8457">-</text><text fill="#000000" font-family="sans-serif" font-size="14" lengthAdjust="spacing" text-decoration="line-through" textLength="8" x="1507.5" y="1014.8457">-</text><text fill="#000000" font-family="sans-serif" font-size="14" lengthAdjust="spacing" text-decoration="line-through" textLength="8" x="1515.5" y="1014.8457">-</text><text fill="#000000" font-family="sans-serif" font-size="14" lengthAdjust="spacing" text-decoration="line-through" textLength="8" x="1523.5" y="1014.8457">-</text><text fill="#000000" font-family="sans-serif" font-size="14" lengthAdjust="spacing" textLength="16" x="1531.5" y="1014.8457">--</text><text fill="#000000" font-family="sans-serif" font-size="14" lengthAdjust="spacing" textLength="62" x="1417.5" y="1031.334">#FFD700</text><text fill="#000000" font-family="sans-serif" font-size="14" lengthAdjust="spacing" textLength="103" x="1503.5" y="1031.334">DNS (CoreDNS)</text><text fill="#000000" font-family="sans-serif" font-size="14" lengthAdjust="spacing" textLength="59" x="1417.5" y="1047.8223">#00BFFF</text><text fill="#000000" font-family="sans-serif" font-size="14" lengthAdjust="spacing" textLength="124" x="1503.5" y="1047.8223">Ingress Controller</text><text fill="#000000" font-family="sans-serif" font-size="14" lengthAdjust="spacing" textLength="65" x="1417.5" y="1064.3105">#32CD32</text><text fill="#000000" font-family="sans-serif" font-size="14" lengthAdjust="spacing" textLength="76" x="1503.5" y="1064.3105">Monitoring</text><text fill="#000000" font-family="sans-serif" font-size="14" lengthAdjust="spacing" textLength="60" x="1417.5" y="1080.7988">#FF69B4</text><text fill="#000000" font-family="sans-serif" font-size="14" lengthAdjust="spacing" textLength="164" x="1503.5" y="1080.7988">Reinforcement Learning</text><text fill="#000000" font-family="sans-serif" font-size="14" lengthAdjust="spacing" textLength="63" x="1417.5" y="1097.2871">#FFA07A</text><text fill="#000000" font-family="sans-serif" font-size="14" lengthAdjust="spacing" textLength="122" x="1503.5" y="1097.2871">Metrics Collection</text><text fill="#000000" font-family="sans-serif" font-size="14" lengthAdjust="spacing" textLength="66" x="1417.5" y="1113.7754">#D3D3D3</text><text fill="#000000" font-family="sans-serif" font-size="14" lengthAdjust="spacing" textLength="81" x="1503.5" y="1113.7754">Autoscaling</text><line style="stroke:#000000;stroke-width:1.0;" x1="1413.5" x2="1667.5" y1="984.8223" y2="984.8223"/><line style="stroke:#000000;stroke-width:1.0;" x1="1413.5" x2="1667.5" y1="1001.3105" y2="1001.3105"/><line style="stroke:#000000;stroke-width:1.0;" x1="1413.5" x2="1667.5" y1="1017.7988" y2="1017.7988"/><line style="stroke:#000000;stroke-width:1.0;" x1="1413.5" x2="1667.5" y1="1034.2871" y2="1034.2871"/><line style="stroke:#000000;stroke-width:1.0;" x1="1413.5" x2="1667.5" y1="1050.7754" y2="1050.7754"/><line style="stroke:#000000;stroke-width:1.0;" x1="1413.5" x2="1667.5" y1="1067.2637" y2="1067.2637"/><line style="stroke:#000000;stroke-width:1.0;" x1="1413.5" x2="1667.5" y1="1083.7519" y2="1083.7519"/><line style="stroke:#000000;stroke-width:1.0;" x1="1413.5" x2="1667.5" y1="1100.2402" y2="1100.2402"/><line style="stroke:#000000;stroke-width:1.0;" x1="1413.5" x2="1667.5" y1="1116.7285" y2="1116.7285"/><line style="stroke:#000000;stroke-width:1.0;" x1="1413.5" x2="1413.5" y1="984.8223" y2="1116.7285"/><line style="stroke:#000000;stroke-width:1.0;" x1="1499.5" x2="1499.5" y1="984.8223" y2="1116.7285"/><line style="stroke:#000000;stroke-width:1.0;" x1="1667.5" x2="1667.5" y1="984.8223" y2="1116.7285"/><!--SRC=[VLNXRXCv4FxlfnWjqW6LTfisD8KALGeDeHLD24sFknz8bRlh95OSUsLxWN9KkcVXqNYI6w_jpIvfBv6oQy_tZISptuoVWbbpML9DDx1HKkKhhJOChAuOsLhCYXRgAvTBM51XsXQf2cPO2GT7hKrDvTfj7XuHebbkgLmA1ic4vX_cSAwCJU0V0j0sLSBoaXe3doRUs3NpNAltBmsSYSfOfYC485URKaacBIHdIhFHT9u0DRYjMI4Dl7wDEwUdy6Gy7XttUhka2xdKp9Xq-kvY-dTDvNu7gS7cwBtUc_5u7EZXKL1BRwd1yDvfkg2IrlIbVuSd_SEpKVzmzyIhInWkyQr6Qt53tG9Fcyq-x8y-JdsmWrTlNkmSCtEbiIjMcPfRDal76FQEXxk7JPZLF3SmP_gBInlIDdxhnjHRlr73mrKLah-KNYDYYejjmZjrcQdY1EIIos-rw_gjXUo4KXlJN4bBkGonr7itkTKFKqAegU45osad_8Pmtxmz6k1wa0f52ykCJ_fwy5YCYEm6k1vqell_myvdmvgqAYdMyrnf_jqv4nZ4iBBAv5GmxUexwhilwVhifFuCYLe9c0agEybl1JkSNRJhIal-46gUhrXHYG0oSVKGD1oALfYWX9U1WmaGdLZTxpsv9-GfO7V17n0Q1T21n7Hm9Gs97PXglbpPzBJfgnD83ZAuOaQ9B-opT1u-LanpPX8ICIbE6ucSHX-ETOWiLLa6rzXY2vv_bizME4k203EXCB_F4nTLLFrOgAzawoD5Zq4-pby_Sm7xOaTAGdp5VyU-oE0I9GJNgA4jDW8SkDMDY3zolZ6JkKr8o-A0SK0WQf319sugAlXtjeDhHWC2ZpCOCrRid1oRU3U0brcSbLiIPWQ7puZbt629V7QQKvmB9rpalifWZhbqupw2aUsC3eGwgslOos1Obk8EIraAdbE4E5CQorQ33hmh1jW3FeAttp0cIGKCynnBJNAXgWAIFqrGMuKlnFq0EeeYGbTH9tT9i7ObjRAsFDdVRqcXXMkbFE1gHAsUVg_NgmExP9Y7WeZw0RLgKUS_N1sL3itYLh5ThkzA5hSTC6rzEelMTkqmt4NUd_jRpyBDzHpQ_kAbut6j5eizsk3yJUDn4oMvnSc3jTj-cdFTjU9nLupBXT8vsxZ_SicebiXfWEvA20w3neESdN0QXtwEULoSS9sJVn3CfSye8L9XxmgsiA0MiRBePs_lhQItmgaxtlB3ea39dUpjeVdNlpzXumnhDB0Q2Pxua2KeuX6hkdNzGc-vuFREXGOk9l8V]--></g></svg>